<svg viewBox="0 0 24 24" xmlns="http://www.w3.org/2000/svg" class="kirk-icon sc-ksBlkl Jvfzv" width="40" height="40" aria-hidden="true"><g fill="none" stroke="#708C91" stroke-width="1" stroke-linecap="round" stroke-linejoin="round"><path d="M2.43 5.04v3.48c0 1.44 2.34 2.61 5.22 2.61s5.22-1.17 5.22-2.6V5.03"></path><path d="M2.43 8.52V12c0 1.44 2.34 2.6 5.22 2.6a8.7 8.7 0 0 0 3.48-.66"></path><path d="M2.43 12v3.48c0 1.44 2.34 2.6 5.22 2.6a8.7 8.7 0 0 0 3.48-.66"></path><ellipse cx="7.65" cy="5.04" rx="5.22" ry="2.61"></ellipse><path d="M11.13 12v3.48c0 1.44 2.34 2.6 5.22 2.6s5.22-1.16 5.22-2.6V12"></path><path d="M11.13 15.48v3.48c0 1.44 2.34 2.6 5.22 2.6s5.22-1.16 5.22-2.6v-3.48"></path><ellipse cx="16.35" cy="12" rx="5.22" ry="2.61"></ellipse></g></svg>